<svg width="190" height="183" viewBox="0 0 190 183" fill="none" xmlns="http://www.w3.org/2000/svg">
<g opacity="0.5">
<g clip-path="url(#clip0_4_2)">
<path fill-rule="evenodd" clip-rule="evenodd" d="M91.3673 74.2091C93.7104 71.8659 97.5094 71.8659 99.8525 74.2091L106.924 81.2802L113.995 88.3512C116.338 90.6944 116.338 94.4934 113.995 96.8365L106.924 103.908L99.8525 110.979C97.5094 113.322 93.7104 113.322 91.3673 110.979L84.2962 103.908L77.2251 96.8365C74.882 94.4934 74.882 90.6944 77.2251 88.3512L84.2962 81.2802L91.3673 74.2091ZM95.6099 101.079L87.1246 92.5939L95.6099 84.1086L104.095 92.5939L95.6099 101.079Z" fill="#BABABA"/>
</g>
<g clip-path="url(#clip1_4_2)">
<path d="M11.0794 32.6908C7.95524 29.5666 7.95524 24.5013 11.0794 21.3771L22.3931 10.0634C25.5173 6.93918 30.5827 6.93918 33.7068 10.0634L84.6099 60.9664L61.9825 83.5938L11.0794 32.6908Z" fill="#575757" fill-opacity="0.8"/>
<path d="M11.0794 32.6908C7.95524 29.5666 7.95524 24.5013 11.0794 21.3771L22.3931 10.0634C25.5173 6.93918 30.5827 6.93918 33.7068 10.0634L84.6099 60.9664L61.9825 83.5938L11.0794 32.6908Z" fill="#575757" fill-opacity="0.8"/>
<path fill-rule="evenodd" clip-rule="evenodd" d="M124.075 69.6946L125.652 71.272C126.786 72.4052 128.725 71.812 129.03 70.2388L130.889 60.6595C131.159 59.2681 129.936 58.0452 128.544 58.3151L118.965 60.1738C117.392 60.479 116.798 62.4182 117.932 63.5514L119.509 65.1288L114.637 69.9884L105.61 60.9664L156.591 9.98547C159.715 6.86128 164.78 6.86127 167.905 9.98547L179.218 21.2992C182.342 24.4234 182.342 29.4887 179.218 32.6129L128.237 83.5938L119.211 74.5665L124.075 69.6946Z" fill="#BABABA"/>
<path fill-rule="evenodd" clip-rule="evenodd" d="M124.075 69.6946L125.652 71.272C126.786 72.4052 128.725 71.812 129.03 70.2388L130.889 60.6595C131.159 59.2681 129.936 58.0452 128.544 58.3151L118.965 60.1738C117.392 60.479 116.798 62.4182 117.932 63.5514L119.509 65.1288L114.637 69.9884L105.61 60.9664L156.591 9.98547C159.715 6.86128 164.78 6.86127 167.905 9.98547L179.218 21.2992C182.342 24.4234 182.342 29.4887 179.218 32.6129L128.237 83.5938L119.211 74.5665L124.075 69.6946Z" fill="#BABABA"/>
</g>
<path d="M156.528 72.8891C159.652 69.7649 164.717 69.7649 167.842 72.8891L179.155 84.2028C182.279 87.327 182.279 92.3923 179.155 95.5165L128.237 146.434L105.61 123.807L156.528 72.8891Z" fill="#575757" fill-opacity="0.8"/>
<path d="M54.9023 138.354L77.5297 115.727L111.953 150.15C115.077 153.274 115.077 158.34 111.953 161.464L100.639 172.778C97.5151 175.902 92.4498 175.902 89.3256 172.778L54.9023 138.354Z" fill="#575757" fill-opacity="0.8"/>
<path fill-rule="evenodd" clip-rule="evenodd" d="M53.8423 119.233L54.5257 119.908L44.8495 129.584L10.7817 95.5165C7.65754 92.3923 7.65754 87.327 10.7817 84.2028L22.0954 72.8891C25.2196 69.7649 30.285 69.7649 33.4092 72.8891L67.4769 106.957L59.094 115.34L58.4082 114.667L53.5777 109.836L55.1551 108.259C56.2883 107.126 55.6951 105.187 54.1218 104.881L44.5425 103.023C43.1512 102.753 41.9282 103.976 42.1982 105.367L44.0568 114.946C44.3621 116.52 46.3012 117.113 47.4344 115.98L49.0118 114.402L53.8423 119.233Z" fill="#BABABA"/>
</g>
<defs>
<clipPath id="clip0_4_2">
<rect width="45.2548" height="45.2548" fill="white" transform="translate(72.9825 69.9665)"/>
</clipPath>
<clipPath id="clip1_4_2">
<rect width="179.453" height="79.2652" fill="white" transform="translate(5.42258 4.32861)"/>
</clipPath>
</defs>
</svg>
