<svg width="190" height="192" viewBox="0 0 190 192" fill="none" xmlns="http://www.w3.org/2000/svg">
<g clip-path="url(#clip0_7_140)">
<path fill-rule="evenodd" clip-rule="evenodd" d="M91.3515 78.3456C93.6946 76.0024 97.4936 76.0024 99.8368 78.3456L106.908 85.4167L113.979 92.4877C116.322 94.8309 116.322 98.6299 113.979 100.973L106.908 108.044L99.8368 115.115C97.4936 117.458 93.6947 117.458 91.3515 115.115L84.2804 108.044L77.2094 100.973C74.8662 98.6299 74.8662 94.8309 77.2094 92.4877L84.2804 85.4167L91.3515 78.3456Z" fill="#22A7F2"/>
</g>
<path d="M14.9292 36.7494C11.805 33.6252 11.805 28.5599 14.9292 25.4357L26.2429 14.122C29.3671 10.9978 34.4324 10.9978 37.5566 14.122L88.4596 65.0251L65.8322 87.6525L14.9292 36.7494Z" fill="#0376B3"/>
<path d="M155.575 14.1999C158.699 11.0758 163.765 11.0758 166.889 14.1999L178.202 25.5137C181.327 28.6378 181.327 33.7032 178.202 36.8274L114.784 100.246L92.6192 77.1558L155.575 14.1999Z" fill="#22A7F2"/>
<path d="M156.544 77.2084C159.668 74.0842 164.733 74.0842 167.857 77.2084L179.171 88.5221C182.295 91.6463 182.295 96.7117 179.171 99.8358L112.84 166.167L90.2127 143.539L156.544 77.2084Z" fill="#0376B3"/>
<path d="M54.9041 144.099L77.5315 121.471L111.955 155.895C115.079 159.019 115.079 164.084 111.955 167.208L100.641 178.522C97.5169 181.646 92.4516 181.646 89.3274 178.522L54.9041 144.099Z" fill="url(#paint0_linear_7_140)"/>
<path fill-rule="evenodd" clip-rule="evenodd" d="M55.3237 144.518L11.5002 100.695C8.37604 97.5707 8.37604 92.5054 11.5002 89.3812L22.8139 78.0675C25.9381 74.9433 31.0035 74.9433 34.1277 78.0675L77.9511 121.891L55.3237 144.518Z" fill="#22A7F2"/>
<defs>
<linearGradient id="paint0_linear_7_140" x1="66.2178" y1="132.785" x2="106.298" y2="172.865" gradientUnits="userSpaceOnUse">
<stop stop-color="#22A7F2"/>
<stop offset="1" stop-color="#0489CC"/>
</linearGradient>
<clipPath id="clip0_7_140">
<rect width="45.2548" height="45.2548" fill="white" transform="translate(72.9667 74.103)"/>
</clipPath>
</defs>
</svg>
