<svg width="190" height="192" viewBox="0 0 190 192" fill="none" xmlns="http://www.w3.org/2000/svg">
<g clip-path="url(#clip0_4_16)">
<path fill-rule="evenodd" clip-rule="evenodd" d="M91.3673 78.4371C93.7104 76.0939 97.5094 76.0939 99.8525 78.4371L106.924 85.5081L113.995 92.5792C116.338 94.9223 116.338 98.7213 113.995 101.064L106.924 108.136L99.8525 115.207C97.5094 117.55 93.7104 117.55 91.3673 115.207L84.2962 108.136L77.2251 101.064C74.882 98.7213 74.882 94.9223 77.2251 92.5792L84.2962 85.5081L91.3673 78.4371ZM95.6099 105.307L87.1246 96.8218L95.6099 88.3366L104.095 96.8218L95.6099 105.307Z" fill="#22A7F2"/>
</g>
<g clip-path="url(#clip1_4_16)">
<path d="M11.0794 36.9188C7.95525 33.7946 7.95525 28.7292 11.0794 25.605L22.3932 14.2913C25.5173 11.1671 30.5827 11.1671 33.7069 14.2913L84.6099 65.1944L61.9825 87.8218L11.0794 36.9188Z" fill="#0376B3"/>
<path fill-rule="evenodd" clip-rule="evenodd" d="M124.075 73.9226L125.652 75.5C126.786 76.6332 128.725 76.04 129.03 74.4667L130.889 64.8874C131.159 63.4961 129.936 62.2731 128.544 62.5431L118.965 64.4018C117.392 64.707 116.798 66.6461 117.932 67.7794L119.509 69.3567L114.637 74.2163L105.61 65.1944L156.591 14.2134C159.715 11.0892 164.78 11.0892 167.905 14.2134L179.218 25.5271C182.342 28.6513 182.342 33.7167 179.218 36.8409L128.237 87.8218L119.211 78.7945L124.075 73.9226Z" fill="#22A7F2"/>
</g>
<path d="M156.528 77.1171C159.652 73.9929 164.717 73.9929 167.842 77.1171L179.155 88.4308C182.279 91.555 182.279 96.6203 179.155 99.7445L128.237 150.662L105.61 128.035L156.528 77.1171Z" fill="#0376B3"/>
<path d="M54.9023 142.582L77.5297 119.955L111.953 154.378C115.077 157.502 115.077 162.568 111.953 165.692L100.639 177.006C97.5151 180.13 92.4498 180.13 89.3256 177.006L54.9023 142.582Z" fill="#0376B3"/>
<path fill-rule="evenodd" clip-rule="evenodd" d="M53.8423 123.461L54.5257 124.136L44.8495 133.812L10.7817 99.7445C7.65754 96.6203 7.65754 91.555 10.7817 88.4308L22.0954 77.1171C25.2196 73.9929 30.285 73.9929 33.4092 77.1171L67.4769 111.185L59.094 119.568L58.4082 118.895L53.5777 114.064L55.1551 112.487C56.2883 111.354 55.6951 109.415 54.1218 109.109L44.5425 107.251C43.1512 106.981 41.9282 108.204 42.1982 109.595L44.0568 119.174C44.3621 120.748 46.3012 121.341 47.4344 120.208L49.0118 118.63L53.8423 123.461Z" fill="#22A7F2"/>
<defs>
<clipPath id="clip0_4_16">
<rect width="45.2548" height="45.2548" fill="white" transform="translate(72.9825 74.1944)"/>
</clipPath>
<clipPath id="clip1_4_16">
<rect width="179.453" height="79.2652" fill="white" transform="translate(5.42258 8.55658)"/>
</clipPath>
</defs>
</svg>
