<svg width="190" height="183" viewBox="0 0 190 183" fill="none" xmlns="http://www.w3.org/2000/svg">
<path fill-rule="evenodd" clip-rule="evenodd" d="M91.3515 74.1177C93.6946 71.7745 97.4936 71.7745 99.8368 74.1177L106.908 81.1888L113.979 88.2598C116.322 90.603 116.322 94.402 113.979 96.7451L106.908 103.816L99.8368 110.887C97.4936 113.23 93.6947 113.23 91.3515 110.887L84.2804 103.816L77.2094 96.7451C74.8662 94.402 74.8662 90.603 77.2094 88.2598L84.2804 81.1888L91.3515 74.1177Z" fill="#BABABA"/>
<path d="M14.9292 32.5215C11.805 29.3973 11.805 24.332 14.9292 21.2078L26.2429 9.89406C29.3671 6.76987 34.4324 6.76987 37.5566 9.89406L88.4596 60.7971L65.8322 83.4245L14.9292 32.5215Z" fill="#575757" fill-opacity="0.8"/>
<path d="M155.575 9.97198C158.699 6.84779 163.765 6.84779 166.889 9.97198L178.202 21.2857C181.327 24.4099 181.327 29.4752 178.202 32.5994L114.784 96.0178L92.6192 72.9278L155.575 9.97198Z" fill="#BABABA"/>
<path d="M156.544 72.9805C159.668 69.8563 164.733 69.8563 167.857 72.9805L179.171 84.2942C182.295 87.4184 182.295 92.4837 179.171 95.6079L112.84 161.939L90.2127 139.311L156.544 72.9805Z" fill="#575757" fill-opacity="0.8"/>
<path d="M54.9041 139.871L77.5315 117.243L111.955 151.667C115.079 154.791 115.079 159.856 111.955 162.98L100.641 174.294C97.5169 177.418 92.4516 177.418 89.3274 174.294L54.9041 139.871Z" fill="url(#paint0_linear_7_151)"/>
<path fill-rule="evenodd" clip-rule="evenodd" d="M55.3225 140.289L11.5002 96.4669C8.37604 93.3427 8.37604 88.2774 11.5002 85.1532L22.8139 73.8395C25.9381 70.7153 31.0035 70.7153 34.1277 73.8395L77.9499 117.662L55.3225 140.289Z" fill="#BABABA"/>
<defs>
<linearGradient id="paint0_linear_7_151" x1="66.2178" y1="128.557" x2="106.298" y2="168.637" gradientUnits="userSpaceOnUse">
<stop stop-color="#BABABA"/>
<stop offset="1" stop-color="#808080"/>
</linearGradient>
</defs>
</svg>
