<svg width="72" height="72" viewBox="0 0 72 72" fill="none" xmlns="http://www.w3.org/2000/svg">
<path d="M3.96449 39.3198C2.01187 37.3672 2.01187 34.2014 3.96449 32.2487L32.2488 3.96447C34.2014 2.01185 37.3672 2.01185 39.3198 3.96447L67.6041 32.2487C69.5567 34.2014 69.5567 37.3672 67.6041 39.3198L39.3198 67.6041C37.3672 69.5567 34.2014 69.5567 32.2488 67.6041L3.96449 39.3198Z" fill="#7B3E8E"/>
<path d="M3.96449 32.2487L5.73226 34.0165L34.0165 5.73223L32.2488 3.96447L30.481 2.1967L2.19672 30.481L3.96449 32.2487ZM39.3198 3.96447L37.5521 5.73223L65.8363 34.0165L67.6041 32.2487L69.3719 30.481L41.0876 2.1967L39.3198 3.96447ZM67.6041 39.3198L65.8363 37.552L37.5521 65.8363L39.3198 67.6041L41.0876 69.3718L69.3719 41.0876L67.6041 39.3198ZM32.2488 67.6041L34.0165 65.8363L5.73226 37.552L3.96449 39.3198L2.19672 41.0876L30.481 69.3718L32.2488 67.6041ZM39.3198 67.6041L37.5521 65.8363C36.5758 66.8126 34.9928 66.8126 34.0165 65.8363L32.2488 67.6041L30.481 69.3718C33.4099 72.3008 38.1587 72.3008 41.0876 69.3718L39.3198 67.6041ZM67.6041 32.2487L65.8363 34.0165C66.8126 34.9928 66.8126 36.5757 65.8363 37.552L67.6041 39.3198L69.3719 41.0876C72.3008 38.1586 72.3008 33.4099 69.3719 30.481L67.6041 32.2487ZM32.2488 3.96447L34.0165 5.73223C34.9928 4.75592 36.5758 4.75592 37.5521 5.73223L39.3198 3.96447L41.0876 2.1967C38.1587 -0.732233 33.4099 -0.73223 30.481 2.1967L32.2488 3.96447ZM3.96449 32.2487L2.19672 30.481C-0.732211 33.4099 -0.732209 38.1586 2.19672 41.0876L3.96449 39.3198L5.73226 37.552C4.75595 36.5757 4.75595 34.9928 5.73226 34.0165L3.96449 32.2487Z" fill="#454E51"/>
<path d="M33.2388 42.0079V41.6699C33.2455 40.5098 33.3482 39.5851 33.5471 38.8957C33.7526 38.2063 34.0509 37.6495 34.442 37.2253C34.8331 36.801 35.3037 36.4165 35.8539 36.0718C36.2649 35.8067 36.6328 35.5316 36.9576 35.2466C37.2824 34.9615 37.5409 34.6467 37.7332 34.302C37.9254 33.9506 38.0215 33.5595 38.0215 33.1287C38.0215 32.6713 37.9121 32.2702 37.6934 31.9255C37.4746 31.5808 37.1797 31.3157 36.8084 31.1301C36.4439 30.9445 36.0395 30.8517 35.5954 30.8517C35.1645 30.8517 34.7568 30.9478 34.3724 31.14C33.9879 31.3256 33.673 31.604 33.4278 31.9753C33.1825 32.3398 33.0499 32.7939 33.03 33.3375H28.9732C29.0064 32.0117 29.3245 30.918 29.9278 30.0562C30.531 29.1878 31.3298 28.5415 32.3241 28.1173C33.3184 27.6864 34.4155 27.471 35.6153 27.471C36.9344 27.471 38.1011 27.6897 39.1153 28.1272C40.1295 28.5581 40.9249 29.1845 41.5016 30.0065C42.0783 30.8285 42.3667 31.8195 42.3667 32.9795C42.3667 33.7551 42.2374 34.4445 41.9789 35.0477C41.727 35.6443 41.3724 36.1746 40.915 36.6386C40.4576 37.096 39.9174 37.5103 39.2942 37.8815C38.7706 38.1931 38.3397 38.5179 38.0016 38.8559C37.6702 39.194 37.4216 39.5851 37.2559 40.0292C37.0968 40.4734 37.0139 41.0202 37.0073 41.6699V42.0079H33.2388ZM35.2076 48.3716C34.5447 48.3716 33.978 48.1396 33.5073 47.6755C33.0433 47.2049 32.8146 46.6414 32.8212 45.9852C32.8146 45.3356 33.0433 44.7788 33.5073 44.3147C33.978 43.8507 34.5447 43.6187 35.2076 43.6187C35.8373 43.6187 36.3908 43.8507 36.8681 44.3147C37.3454 44.7788 37.5873 45.3356 37.594 45.9852C37.5873 46.4227 37.4713 46.8237 37.2459 47.1883C37.0272 47.5463 36.7388 47.8346 36.3809 48.0534C36.0229 48.2655 35.6318 48.3716 35.2076 48.3716Z" fill="white"/>
</svg>
