<svg width="71" height="71" viewBox="0 0 71 71" fill="none" xmlns="http://www.w3.org/2000/svg">
<path d="M63 10H15C12.2386 10 10 12.2386 10 15V34V46V52V55C10 56.6569 11.3431 58 13 58H13.1247L17.25 57.9993H24.5H39H63C65.7614 57.9993 68 55.7607 68 52.9993V15C68 12.2386 65.7614 10 63 10Z" fill="#F5B23F" stroke="#454E51" stroke-width="5" stroke-linejoin="round"/>
<path d="M33.6457 36.2464C32.7768 36.2464 32.3213 35.2144 32.9069 34.5725L43.8353 22.5921C44.6273 21.7239 46.0082 22.6963 45.4575 23.7345L41.4266 31.3351C41.0733 32.0011 41.5561 32.8036 42.31 32.8036L44.2858 32.8036C45.1682 32.8036 45.6181 33.8633 45.0053 34.4981L34.3577 45.5289C33.5409 46.375 32.1875 45.3621 32.769 44.3399L36.5231 37.7409C36.9023 37.0742 36.4209 36.2464 35.6539 36.2464H33.6457Z" fill="#FAFAFA"/>
<path d="M33.6457 36.2464C32.7768 36.2464 32.3213 35.2144 32.9069 34.5725L43.8353 22.5921C44.6273 21.7239 46.0082 22.6963 45.4575 23.7345L41.4266 31.3351C41.0733 32.0011 41.5561 32.8036 42.31 32.8036L44.2858 32.8036C45.1682 32.8036 45.6181 33.8633 45.0053 34.4981L34.3577 45.5289C33.5409 46.375 32.1875 45.3621 32.769 44.3399L36.5231 37.7409C36.9023 37.0742 36.4209 36.2464 35.6539 36.2464H33.6457Z" fill="#FAFAFA"/>
<circle cx="10" cy="10" r="7.5" fill="#F5B23F" stroke="#454E51" stroke-width="5"/>
<path d="M7.49841 61.3923L7.49843 66.0282C7.49843 68.4812 9.48694 70.4697 11.9399 70.4697C14.3928 70.4697 16.3813 68.4812 16.3813 66.0282V61.864V57.5612L11.9769 57.5612V52.9974H7.49844L7.49841 61.3923Z" fill="#454E51"/>
</svg>
