<svg width="73" height="64" viewBox="0 0 73 64" fill="none" xmlns="http://www.w3.org/2000/svg">
<path d="M9.47473 11.1501C9.88839 8.75199 11.9685 7 14.402 7H18.8156H36.0656H64.6293C67.7305 7 70.0837 9.7939 69.5565 12.8499L62.6565 52.8499C62.2428 55.248 60.1627 57 57.7293 57H53.3156H36.0656H7.50196C4.40077 57 2.04756 54.2061 2.57473 51.1501L9.47473 11.1501Z" fill="#2BB7B6" stroke="#454E51" stroke-width="5" stroke-linejoin="round"/>
<path d="M21.2635 26.2166C20.6081 25.8296 20.6081 24.8814 21.2635 24.4944L30.1951 19.221C30.8617 18.8274 31.7035 19.308 31.7035 20.0821V21.8429V22.7211V23.1601H44.3505C44.9028 23.1601 45.3505 23.6079 45.3505 24.1601V26.5508C45.3505 27.1031 44.9028 27.5508 44.3505 27.5508H31.7035V27.9899V28.868V30.6289C31.7035 31.403 30.8617 31.8836 30.1951 31.49L21.2635 26.2166Z" fill="#FAFAFA"/>
<path d="M50.8677 37.7834C51.5231 38.1704 51.5231 39.1186 50.8677 39.5056L41.9361 44.779C41.2695 45.1726 40.4277 44.692 40.4277 43.9179V42.1571V41.2789V40.8399H27.7808C27.2285 40.8399 26.7808 40.3921 26.7808 39.8399V37.4492C26.7808 36.8969 27.2285 36.4492 27.7808 36.4492H40.4277V36.0101V35.132V33.3711C40.4277 32.597 41.2695 32.1164 41.9361 32.51L50.8677 37.7834Z" fill="#FAFAFA"/>
</svg>
