<svg width="69" height="64" viewBox="0 0 69 64" fill="none" xmlns="http://www.w3.org/2000/svg">
<path d="M2.5 12C2.5 9.23858 4.73858 7 7.5 7H61.5C64.2614 7 66.5 9.23858 66.5 12V52C66.5 54.7614 64.2614 57 61.5 57H7.5C4.73858 57 2.5 54.7614 2.5 52V12Z" fill="#3071A7"/>
<path d="M7.5 7V9.5H61.5V7V4.5H7.5V7ZM66.5 12H64V52H66.5H69V12H66.5ZM61.5 57V54.5H7.5V57V59.5H61.5V57ZM2.5 52H5V12H2.5H0V52H2.5ZM7.5 57V54.5C6.11929 54.5 5 53.3807 5 52H2.5H0C0 56.1421 3.35786 59.5 7.5 59.5V57ZM66.5 52H64C64 53.3807 62.8807 54.5 61.5 54.5V57V59.5C65.6421 59.5 69 56.1421 69 52H66.5ZM61.5 7V9.5C62.8807 9.5 64 10.6193 64 12H66.5H69C69 7.85786 65.6421 4.5 61.5 4.5V7ZM7.5 7V4.5C3.35786 4.5 0 7.85787 0 12H2.5H5C5 10.6193 6.11929 9.5 7.5 9.5V7Z" fill="#454E51"/>
<rect x="15.5" y="21" width="28" height="4.66667" fill="#D9D9D9"/>
<rect x="15.5" y="29.6667" width="38" height="4.66667" fill="#D9D9D9"/>
<rect x="15.5" y="38.3333" width="18" height="4.66667" fill="#D9D9D9"/>
</svg>
